<?xml version="1.0" standalone="no"?>
<!DOCTYPE svg PUBLIC "-//W3C//DTD SVG 20010904//EN"
 "http://www.w3.org/TR/2001/REC-SVG-20010904/DTD/svg10.dtd">
<svg version="1.0" xmlns="http://www.w3.org/2000/svg"
 width="1663.000000pt" height="1663.000000pt" viewBox="0 0 1663.000000 1663.000000"
 preserveAspectRatio="xMidYMid meet">
<metadata>
Created by potrace 1.11, written by Peter Selinger 2001-2013
</metadata>
<g transform="translate(0.000000,1663.000000) scale(0.100000,-0.100000)"
fill="#000000" stroke="none">
<path d="M11721 15790 c-4 -3 -100 -158 -214 -345 -114 -187 -414 -677 -666
-1090 l-457 -750 -425 -1 -424 -2 -176 78 c-96 43 -200 90 -230 103 -29 14
-79 36 -109 50 -30 14 -95 43 -145 65 -78 34 -483 217 -571 257 -16 8 -61 28
-99 45 -38 17 -83 37 -99 45 -88 40 -498 225 -611 275 -71 32 -161 72 -200 90
-38 18 -108 49 -155 70 -98 43 -282 127 -388 176 -41 19 -75 34 -77 34 -2 0
-36 15 -77 34 -40 18 -140 64 -223 101 -82 36 -172 77 -200 90 -128 59 -207
95 -210 95 -2 0 -36 15 -77 34 -40 18 -185 84 -323 145 -137 62 -258 116 -267
121 -30 17 -34 26 107 -275 39 -84 445 -953 487 -1045 39 -84 88 -187 178
-380 78 -168 101 -217 180 -385 29 -60 55 -119 60 -130 7 -17 121 -178 353
-495 34 -47 84 -116 110 -155 27 -38 53 -72 58 -73 5 -2 -298 -208 -673 -459
-499 -332 -692 -466 -718 -498 -53 -65 -135 -171 -296 -380 -80 -104 -157
-203 -169 -220 -13 -16 -67 -86 -121 -155 -53 -69 -107 -138 -120 -155 -13
-16 -49 -64 -81 -106 -81 -106 -230 -299 -305 -395 -35 -45 -74 -96 -88 -114
-14 -19 -45 -58 -68 -87 -42 -52 -44 -56 -38 -106 3 -29 7 -63 10 -77 3 -14 7
-50 10 -80 4 -30 10 -80 15 -110 6 -30 13 -77 16 -105 3 -27 8 -61 10 -75 3
-21 14 -96 30 -215 2 -11 6 -38 9 -60 3 -22 10 -71 16 -110 5 -38 12 -88 15
-110 3 -22 8 -55 10 -72 3 -18 7 -49 10 -68 3 -19 7 -50 10 -67 2 -18 9 -67
15 -108 6 -41 13 -88 15 -105 5 -39 34 -239 42 -290 9 -59 6 -79 -14 -93 -10
-7 -77 -57 -148 -110 -72 -53 -243 -181 -380 -283 -138 -102 -437 -325 -665
-495 -228 -171 -487 -364 -575 -429 -88 -66 -362 -270 -610 -455 -247 -184
-475 -353 -505 -375 -30 -22 -60 -44 -66 -50 -6 -5 -145 -109 -308 -230 -164
-121 -324 -240 -356 -265 -32 -25 -67 -52 -79 -60 -13 -8 -105 -77 -206 -153
l-184 -138 127 -157 c70 -86 177 -218 237 -292 60 -74 114 -140 119 -147 6 -7
16 -18 21 -25 155 -193 261 -324 266 -328 3 -3 32 -39 64 -80 33 -41 62 -77
65 -80 5 -4 92 -110 123 -150 108 -136 223 -273 237 -283 16 -12 37 -29 200
-167 42 -36 100 -85 130 -110 48 -40 174 -147 240 -204 14 -11 68 -57 120
-101 137 -115 150 -126 196 -167 22 -21 44 -38 47 -38 4 0 -47 80 -112 178
-64 97 -157 238 -206 312 -48 74 -105 161 -127 192 l-38 57 68 -24 c37 -12 99
-34 137 -48 222 -80 536 -192 570 -203 22 -7 65 -22 95 -33 30 -12 56 -21 57
-21 2 0 3 54 3 119 l0 119 57 -30 c32 -17 75 -41 95 -54 21 -13 39 -24 41 -24
2 0 69 -37 148 -81 79 -45 171 -96 204 -114 33 -18 104 -58 159 -89 54 -31
100 -56 102 -56 3 0 21 -10 42 -23 20 -13 69 -41 107 -62 100 -54 367 -204
385 -215 8 -6 35 -21 60 -33 25 -13 77 -42 115 -64 39 -22 95 -53 125 -70 30
-17 72 -40 93 -52 l39 -22 -7 23 c-4 13 -11 37 -16 53 -18 57 -157 550 -156
552 2 1 49 7 167 18 25 3 77 7 115 11 39 3 81 7 95 9 14 2 61 7 105 10 44 3
96 8 115 10 49 6 150 15 209 20 28 2 70 6 93 9 24 3 75 8 113 11 39 4 86 8
105 10 19 2 69 7 110 10 41 3 86 8 100 10 14 2 61 7 105 11 44 3 91 8 105 9
14 2 31 3 39 4 10 1 8 6 -6 19 -27 23 -251 231 -336 312 -37 36 -72 67 -78 68
-50 18 90 22 855 24 l864 3 -61 66 c-34 36 -100 107 -147 159 -47 51 -91 99
-99 107 -20 21 -8 27 109 56 58 15 281 72 495 128 215 55 397 102 405 104 8 2
123 31 255 65 132 34 402 104 600 155 198 52 457 118 575 149 118 30 260 67
315 82 82 23 128 29 257 33 86 3 154 3 150 0 -4 -3 -88 -61 -187 -128 -99 -67
-198 -134 -220 -149 -22 -15 -105 -72 -185 -127 -80 -54 -188 -128 -240 -163
-165 -113 -352 -240 -595 -406 -33 -23 -62 -43 -65 -46 -3 -3 -71 -50 -152
-104 -82 -55 -148 -103 -148 -106 0 -4 68 -38 152 -78 122 -57 147 -72 127
-76 -53 -13 -216 -46 -249 -51 -19 -3 -42 -8 -50 -10 -8 -2 -31 -7 -50 -10
-19 -3 -42 -8 -50 -10 -8 -2 -31 -7 -50 -10 -19 -3 -66 -12 -105 -20 -38 -8
-81 -16 -95 -19 -14 -2 -95 -19 -180 -36 -85 -18 -168 -34 -185 -37 -16 -3
-95 -18 -174 -34 -79 -16 -146 -29 -148 -29 -2 0 68 -73 157 -161 89 -89 158
-165 153 -169 -4 -5 -25 -11 -45 -14 -21 -3 -57 -10 -80 -15 -24 -6 -54 -12
-68 -14 -14 -3 -83 -17 -155 -31 -71 -14 -139 -28 -150 -30 -11 -2 -148 -30
-305 -61 -157 -31 -294 -59 -305 -61 -11 -2 -42 -8 -70 -14 -27 -6 -61 -12
-75 -15 -14 -3 -50 -10 -80 -16 -82 -17 -84 -17 -100 -18 -53 -4 -42 -20 130
-191 95 -94 168 -175 164 -179 -5 -5 -76 -21 -159 -37 -82 -15 -152 -28 -155
-29 -15 -3 -96 -16 -102 -16 -4 0 -22 -4 -39 -9 -18 -5 -51 -12 -73 -15 -23
-4 -59 -10 -81 -15 -22 -5 -56 -11 -75 -15 -19 -3 -46 -8 -60 -10 -14 -3 -34
-7 -45 -9 -34 -7 -349 -68 -365 -71 -8 -1 -64 -12 -125 -23 -60 -12 -121 -23
-135 -26 -14 -2 -65 -12 -115 -21 -49 -10 -101 -19 -115 -22 -14 -2 -44 -8
-68 -14 -97 -21 -121 -24 -212 -23 -91 0 -312 10 -452 20 -66 4 -96 15 -258
91 -41 20 -102 48 -135 63 -91 42 -212 98 -293 136 -39 19 -98 46 -130 60 -31
15 -60 28 -64 31 -32 18 17 -26 174 -158 101 -84 201 -169 224 -188 54 -48 70
-62 284 -241 102 -85 187 -157 190 -160 45 -47 64 -54 255 -86 59 -10 311 -55
365 -65 30 -6 66 -12 80 -13 14 -2 90 -16 170 -30 80 -15 181 -33 225 -41 44
-8 94 -17 110 -20 17 -3 82 -14 145 -25 63 -11 125 -22 136 -24 12 -2 37 -7
55 -10 35 -6 107 -19 239 -42 19 -4 44 -8 55 -9 11 -2 36 -5 56 -9 28 -4 58 4
135 35 54 23 182 75 284 116 102 41 232 94 290 118 58 23 191 77 295 120 105
42 204 83 220 90 17 7 100 41 185 75 85 34 169 68 185 75 17 7 149 61 295 120
146 60 401 163 568 231 167 68 305 124 308 124 2 0 23 9 47 19 23 11 78 34
122 51 44 18 94 38 110 45 28 12 201 83 565 230 142 58 178 72 235 96 11 4 49
20 85 34 36 14 74 30 85 35 11 5 153 63 315 129 162 65 358 145 435 176 77 31
284 115 460 187 176 71 334 136 350 143 17 7 64 27 105 43 423 170 549 224
885 382 44 21 105 49 135 63 30 13 84 38 120 55 360 165 446 205 515 237 140
65 438 202 500 229 33 15 67 31 75 35 9 5 126 59 260 121 135 62 287 132 338
156 51 24 95 44 96 44 2 0 50 22 107 49 57 27 154 71 214 99 61 27 148 68 195
89 47 22 176 82 287 133 111 51 201 96 199 99 -2 3 2 42 9 86 7 44 16 105 20
135 3 30 8 62 10 70 2 8 6 35 9 60 3 25 8 54 10 65 2 11 7 43 10 70 4 28 9 62
11 76 3 14 7 41 9 60 8 54 36 252 41 279 2 14 6 45 10 70 4 25 8 57 11 73 2
15 6 39 8 55 6 39 15 100 21 152 4 25 8 56 10 70 8 48 46 305 50 335 7 50 27
189 30 205 2 8 6 38 9 65 4 28 11 75 16 105 5 30 11 78 15 105 3 28 7 61 10
75 3 14 7 39 9 55 7 51 17 119 21 145 15 101 47 321 51 350 2 19 6 46 9 60 3
14 7 45 10 70 3 25 8 56 10 70 7 42 24 152 30 200 3 25 8 56 10 70 2 14 7 45
10 70 3 25 8 56 10 70 2 14 11 75 20 135 9 61 18 121 20 135 2 14 7 48 10 75
4 28 9 64 11 80 3 17 7 41 9 55 4 25 19 138 30 217 5 33 -1 55 -28 115 -19 40
-49 107 -67 148 -18 41 -46 104 -62 140 -17 36 -45 99 -63 140 -33 76 -262
592 -295 665 -10 22 -170 382 -355 800 -185 418 -348 785 -362 815 -14 30 -31
69 -38 85 -7 17 -24 55 -38 85 -119 260 -129 290 -132 374 -18 534 -234 1203
-618 1906 -50 91 -95 175 -101 187 -6 13 -14 23 -18 23 -5 0 -8 4 -8 9 0 6
-30 60 -67 121 -38 61 -72 119 -78 128 -27 46 -47 63 -140 119 -111 68 -150
90 -315 180 -304 167 -706 343 -985 432 -103 33 -354 96 -415 105 -90 13 -198
25 -230 25 -19 1 -57 2 -83 4 -27 1 -52 0 -56 -3z m-7243 -6435 c15 -22 78
-112 141 -200 63 -88 126 -176 140 -196 54 -77 196 -275 218 -306 19 -25 21
-33 11 -42 -26 -22 -154 -117 -190 -141 -20 -13 -34 -29 -31 -34 3 -5 2 -7 -3
-3 -5 3 -39 -16 -74 -43 -43 -32 -67 -45 -71 -37 -4 7 -12 44 -19 82 -7 39
-14 77 -16 85 -1 8 -12 60 -23 115 -11 55 -22 113 -25 128 -5 29 -55 288 -62
322 -2 11 -6 32 -9 47 -3 15 -14 74 -26 130 -11 57 -22 119 -25 138 -3 19 -8
40 -11 45 -8 17 46 -48 75 -90z m4141 -29 c174 -80 234 -107 411 -188 214 -98
258 -118 335 -153 63 -30 152 -69 223 -100 23 -10 42 -21 42 -24 0 -3 -47 -35
-103 -71 -56 -35 -158 -101 -227 -145 -196 -127 -691 -445 -782 -502 -46 -29
-88 -56 -93 -61 -6 -5 -15 -11 -20 -13 -6 -2 -35 -20 -65 -40 -60 -39 -204
-133 -287 -186 l-52 -33 -178 86 c-98 48 -236 114 -308 149 -71 34 -206 100
-300 145 -93 45 -206 99 -250 120 -44 21 -188 91 -320 155 -132 64 -257 124
-277 132 -21 8 -38 19 -38 23 0 6 377 280 580 421 21 15 85 61 143 103 87 62
114 77 154 81 26 4 64 8 83 10 19 3 60 7 90 10 30 3 71 7 90 10 33 4 67 8 190
20 30 3 69 8 85 10 17 2 57 7 90 10 33 4 76 8 95 11 148 17 180 20 270 29 36
4 79 9 95 11 17 2 59 6 95 10 36 3 67 8 69 10 14 14 76 -2 160 -40z"/>
</g>
</svg>
