<?xml version="1.0" encoding="utf-8"?>
<!-- Generator: Adobe Illustrator 23.0.0, SVG Export Plug-In . SVG Version: 6.00 Build 0)  -->
<svg version="1.1" id="Layer_1" xmlns="http://www.w3.org/2000/svg" xmlns:xlink="http://www.w3.org/1999/xlink" x="0px" y="0px"
	 viewBox="0 0 535.7 891.3" style="enable-background:new 0 0 535.7 891.3;" xml:space="preserve">
<style type="text/css">
	.st0{fill:#FFFFFF;}
</style>
<g>
	<path class="st0" d="M534.6,540.3c-0.6,0-1.1-0.5-1.1-1.1V1.9c0-0.6,0.5-1.1,1.1-1.1s1.1,0.5,1.1,1.1v537.2
		C535.7,539.8,535.2,540.3,534.6,540.3z"/>
	<path class="st0" d="M1.1,540.3c-0.6,0-1.1-0.5-1.1-1.1V1.9c0-0.6,0.5-1.1,1.1-1.1s1.1,0.5,1.1,1.1v537.2
		C2.3,539.8,1.8,540.3,1.1,540.3z"/>
	<path class="st0" d="M267.9,890.2c-0.6,0-1.1-0.5-1.1-1.1V301.4c0-0.6,0.5-1.1,1.1-1.1s1.1,0.5,1.1,1.1v587.7
		C269,889.7,268.5,890.2,267.9,890.2z"/>
	<path class="st0" d="M270.1,721.5c-0.4,0-0.7-0.2-0.9-0.5c-0.4-0.5-0.2-1.2,0.3-1.6l264.5-181.2c0.5-0.4,1.2-0.2,1.6,0.3
		c0.4,0.5,0.2,1.2-0.3,1.6L270.7,721.3C270.5,721.4,270.3,721.5,270.1,721.5z"/>
	<path class="st0" d="M265.6,721.5c-0.2,0-0.4-0.1-0.6-0.2L0.5,540.1c-0.5-0.4-0.6-1.1-0.3-1.6c0.4-0.5,1.1-0.6,1.6-0.3l264.5,181.2
		c0.5,0.4,0.6,1.1,0.3,1.6C266.4,721.3,266,721.5,265.6,721.5z"/>
	<path class="st0" d="M267.9,890.6c-0.5,0-1-0.4-1.1-0.9c-0.1-0.6,0.2-1.2,0.9-1.4l63-14.3c0.6-0.1,1.2,0.2,1.4,0.9
		s-0.2,1.2-0.9,1.4l-63,14.3C268.1,890.6,268,890.6,267.9,890.6z"/>
	<path class="st0" d="M267.8,890.6c-0.1,0-0.2,0-0.3,0l-63-14.3c-0.6-0.1-1-0.7-0.9-1.4c0.1-0.6,0.7-1,1.4-0.9l63,14.3
		c0.6,0.1,1,0.7,0.9,1.4C268.8,890.2,268.3,890.6,267.8,890.6z"/>
	<path class="st0" d="M267.9,434.1c-0.5,0-0.9-0.3-1.1-0.7c-0.2-0.6,0.1-1.2,0.7-1.5L532,331.9c0.6-0.2,1.2,0.1,1.5,0.7
		c0.2,0.6-0.1,1.2-0.7,1.5L268.3,434.1C268.2,434.1,268,434.1,267.9,434.1z"/>
	<path class="st0" d="M267.8,434.1c-0.1,0-0.3,0-0.4-0.1L2.9,334c-0.6-0.2-0.9-0.9-0.7-1.5c0.2-0.6,0.9-0.9,1.5-0.7l264.5,100.1
		c0.6,0.2,0.9,0.9,0.7,1.5C268.7,433.9,268.2,434.1,267.8,434.1z"/>
	<path class="st0" d="M532.4,331.8c0,0-0.1,0-0.1,0l-264.5-30.1c-0.6-0.1-1.1-0.6-1-1.3c0.1-0.6,0.6-1.1,1.3-1l264.5,30.1
		c0.6,0.1,1.1,0.6,1,1.3C533.5,331.4,533,331.8,532.4,331.8z"/>
	<path class="st0" d="M3.3,331.8c-0.6,0-1.1-0.4-1.1-1c-0.1-0.6,0.4-1.2,1-1.3l264.5-30.1c0.6-0.1,1.2,0.4,1.3,1
		c0.1,0.6-0.4,1.2-1,1.3L3.4,331.8C3.4,331.8,3.3,331.8,3.3,331.8z"/>
	<path class="st0" d="M532.4,538.2c-0.1,0-0.3,0-0.4-0.1L267.5,436c-0.6-0.2-0.9-0.9-0.6-1.5c0.2-0.6,0.9-0.9,1.5-0.6L532.8,536
		c0.6,0.2,0.9,0.9,0.6,1.5C533.3,537.9,532.9,538.2,532.4,538.2z"/>
	<path class="st0" d="M3.3,538.2c-0.5,0-0.9-0.3-1.1-0.7c-0.2-0.6,0.1-1.2,0.6-1.5l264.5-102.1c0.6-0.2,1.2,0.1,1.5,0.6
		c0.2,0.6-0.1,1.2-0.6,1.5L3.7,538.1C3.5,538.2,3.4,538.2,3.3,538.2z"/>
	<path class="st0" d="M402.1,631.6c-0.1,0-0.1,0-0.2,0l-134.2-24.4c-0.6-0.1-1-0.7-0.9-1.3c0.1-0.6,0.7-1,1.3-0.9l134.2,24.4
		c0.6,0.1,1,0.7,0.9,1.3C403.1,631.3,402.7,631.6,402.1,631.6z"/>
	<path class="st0" d="M133.6,631.6c-0.5,0-1-0.4-1.1-0.9c-0.1-0.6,0.3-1.2,0.9-1.3L267.6,605c0.6-0.1,1.2,0.3,1.3,0.9
		s-0.3,1.2-0.9,1.3l-134.2,24.4C133.7,631.6,133.6,631.6,133.6,631.6z"/>
	<path class="st0" d="M463.2,589.2c-0.4,0-0.7-0.2-0.9-0.5L269.1,301.6c-0.3-0.5-0.2-1.2,0.3-1.6c0.5-0.4,1.2-0.2,1.6,0.3
		l193.2,287.1c0.3,0.5,0.2,1.2-0.3,1.6C463.7,589.1,463.4,589.2,463.2,589.2z"/>
	<path class="st0" d="M72.5,589.2c-0.2,0-0.4-0.1-0.6-0.2c-0.5-0.3-0.7-1.1-0.3-1.6l193.2-287.1c0.3-0.5,1.1-0.7,1.6-0.3
		c0.5,0.3,0.7,1.1,0.3,1.6L73.4,588.7C73.2,589,72.8,589.2,72.5,589.2z"/>
	<path class="st0" d="M270,890.2c-0.2,0-0.4-0.1-0.6-0.2c-0.5-0.3-0.7-1-0.3-1.6l192.8-300.4c0.3-0.5,1-0.7,1.6-0.3
		c0.5,0.3,0.7,1,0.3,1.6L271,889.7C270.8,890,270.4,890.2,270,890.2z"/>
	<path class="st0" d="M265.6,890.2c-0.4,0-0.7-0.2-1-0.5L71.9,589.3c-0.3-0.5-0.2-1.2,0.3-1.6c0.5-0.3,1.2-0.2,1.6,0.3l192.8,300.4
		c0.3,0.5,0.2,1.2-0.3,1.6C266.1,890.2,265.9,890.2,265.6,890.2z"/>
	<path class="st0" d="M270,890.2c-0.1,0-0.2,0-0.3,0c-0.6-0.2-0.9-0.8-0.8-1.4L531.3,0.8c0.2-0.6,0.8-0.9,1.4-0.8
		c0.6,0.2,0.9,0.8,0.8,1.4L271.1,889.4C271,889.9,270.5,890.2,270,890.2z"/>
	<path class="st0" d="M265.6,890.2c-0.5,0-0.9-0.3-1.1-0.8L2.2,1.5C2,0.9,2.4,0.2,3,0c0.6-0.2,1.2,0.2,1.4,0.8l262.4,887.9
		c0.2,0.6-0.2,1.2-0.8,1.4C265.9,890.2,265.8,890.2,265.6,890.2z"/>
	<path class="st0" d="M270,538.2c-0.2,0-0.3,0-0.5-0.1c-0.6-0.3-0.8-1-0.5-1.5L531.4,0.6c0.3-0.6,1-0.8,1.5-0.5
		c0.6,0.3,0.8,1,0.5,1.5L271.1,537.5C270.9,537.9,270.5,538.2,270,538.2z"/>
	<path class="st0" d="M265.6,538.2c-0.4,0-0.8-0.2-1-0.6L2.3,1.6C2,1.1,2.2,0.4,2.8,0.1c0.6-0.3,1.2,0,1.5,0.5l262.4,535.9
		c0.3,0.6,0,1.2-0.5,1.5C266,538.1,265.8,538.2,265.6,538.2z"/>
	<path class="st0" d="M332,876c-0.1,0-0.2,0-0.3,0c-0.6-0.2-1-0.8-0.8-1.4l69.4-243.4c0.2-0.6,0.8-1,1.4-0.8c0.6,0.2,1,0.8,0.8,1.4
		L333,875.2C332.9,875.7,332.5,876,332,876z"/>
	<path class="st0" d="M203.7,876c-0.5,0-0.9-0.3-1.1-0.8l-69.4-243.4c-0.2-0.6,0.2-1.2,0.8-1.4c0.6-0.2,1.2,0.2,1.4,0.8l69.4,243.4
		c0.2,0.6-0.2,1.2-0.8,1.4C203.9,876,203.8,876,203.7,876z"/>
	<path class="st0" d="M332.5,876c-0.4,0-0.9-0.3-1-0.7L269,722.6c-0.2-0.6,0-1.2,0.6-1.5c0.6-0.2,1.2,0,1.5,0.6l62.5,152.7
		c0.2,0.6,0,1.2-0.6,1.5C332.8,876,332.7,876,332.5,876z"/>
	<path class="st0" d="M203.2,876c-0.1,0-0.3,0-0.4-0.1c-0.6-0.2-0.9-0.9-0.6-1.5l62.5-152.7c0.2-0.6,0.9-0.9,1.5-0.6
		c0.6,0.2,0.9,0.9,0.6,1.5l-62.5,152.7C204,875.8,203.6,876,203.2,876z"/>
	<path class="st0" d="M267.9,605.8c-0.3,0-0.6-0.1-0.8-0.3c-0.4-0.4-0.5-1.2,0-1.6l264.5-271.7c0.4-0.4,1.2-0.5,1.6,0
		c0.4,0.4,0.5,1.2,0,1.6L268.7,605.4C268.5,605.6,268.2,605.8,267.9,605.8z"/>
	<path class="st0" d="M267.8,605.8c-0.3,0-0.6-0.1-0.8-0.3L2.5,333.7c-0.4-0.4-0.4-1.2,0-1.6c0.4-0.4,1.2-0.4,1.6,0l264.5,271.7
		c0.4,0.4,0.4,1.2,0,1.6C268.4,605.6,268.1,605.8,267.8,605.8z"/>
</g>
</svg>
