<?xml version="1.0" encoding="utf-8"?>
<!-- Generator: Adobe Illustrator 23.0.1, SVG Export Plug-In . SVG Version: 6.00 Build 0)  -->
<svg version="1.1" id="Layer_1" xmlns="http://www.w3.org/2000/svg" xmlns:xlink="http://www.w3.org/1999/xlink" x="0px" y="0px"
	 viewBox="0 0 1662.83 1540.54" style="enable-background:new 0 0 1662.83 1540.54;" xml:space="preserve">
<style type="text/css">
	.st0{fill:#383635;}
	.st1{fill:#232121;}
	.st2{fill:#292625;}
	.st3{fill:#3B3333;}
</style>
<polygon class="st0" points="1070.02,640.7 851.91,664.69 963.52,715.7 800.02,820.7 1025.02,1126.7 1262.02,856.7 "/>
<polygon class="st1" points="998.02,307.7 974.02,436.7 1472.02,412.7 "/>
<polygon class="st2" points="1223.02,1249.7 1568.02,1090.7 1262.02,856.7 1025.02,1126.7 "/>
<polygon class="st2" points="1553.02,761.71 1472.02,412.7 1262.02,856.7 "/>
<polygon class="st2" points="329.02,1384.69 425.02,1465.69 611.02,1498.69 470.02,1426.69 413.02,1423.69 "/>
<polygon class="st2" points="377.02,1279.7 470.02,1357.69 452.02,1294.7 611.02,1279.7 566.02,1237.7 740.02,1237.7 707.02,1201.7 
	998.02,1126.7 293.02,1126.7 "/>
<polygon class="st2" points="500.02,739.7 29.02,1090.7 89.02,1069.7 "/>
<polygon class="st2" points="632.02,739.7 500.02,739.7 89.02,1069.7 197.02,1090.7 "/>
<polygon class="st1" points="632.02,739.7 293.02,1126.7 800.02,820.7 "/>
<polygon class="st0" points="546.52,436.7 740.02,307.7 998.02,307.7 974.02,436.7 740.02,545.2 527.02,526.7 "/>
<polygon class="st2" points="632.02,274.7 527.02,49.7 740.02,307.7 683.25,345.54 "/>
<path class="st3" d="M1172.02,22.7c0,0,196.5-7.5,300,390l-474-105L1172.02,22.7z"/>
<polygon class="st2" points="1472.02,412.7 1262.02,856.7 1070.02,640.7 "/>
<polygon class="st2" points="953.02,241.7 740.02,307.7 998.02,307.7 1043.02,241.7 "/>
<path class="st2" d="M1172.02,22.7l-174,285l474,105c0,0,57-90-81-309C1391.02,103.7,1262.02,19.7,1172.02,22.7z"/>
<polygon class="st2" points="1568.02,1090.7 1553.02,761.71 1628.02,679.7 "/>
<polygon class="st1" points="611.02,1498.69 470.02,1426.69 659.02,1390.69 623.02,1354.69 773.02,1324.7 740.02,1291.7 
	876.45,1264.7 845.02,1249.7 1025.02,1126.7 1223.02,1249.7 "/>
<polygon class="st2" points="632.02,739.7 197.02,1090.7 293.02,1126.7 "/>
<polygon class="st2" points="740.02,545.2 716.02,679.7 1070.02,640.7 974.02,436.7 "/>
<polygon class="st1" points="414.52,607.7 440.02,655.7 527.02,526.7 546.52,436.7 "/>
<polygon class="st3" points="1628.02,679.7 1553.02,761.71 1472.02,412.7 1479.51,345.54 "/>
<polygon class="st2" points="293.02,1126.7 1025.02,1126.7 800.02,820.7 "/>
<polygon class="st2" points="974.02,436.7 1070.02,640.7 1472.02,412.7 "/>
<polygon class="st3" points="1568.02,1090.7 1553.02,761.71 1262.02,856.7 "/>
<polygon class="st0" points="29.02,1090.7 89.02,1069.7 197.02,1090.7 293.02,1126.7 377.02,1279.7 470.02,1357.69 293.02,1258.7 
	293.02,1282.7 200.02,1249.7 249.52,1324.7 152.02,1242.2 "/>
<polygon class="st2" points="527.02,526.7 740.02,545.2 716.02,679.7 632.02,739.7 500.02,739.7 440.02,655.7 "/>
<polygon class="st2" points="414.52,607.7 440.02,655.7 462.27,770.01 440.02,787.87 "/>
<polygon class="st3" points="527.02,49.7 740.02,307.7 953.02,241.7 "/>
</svg>
