<?xml version="1.0" encoding="utf-8"?>
<!-- Generator: Adobe Illustrator 23.0.0, SVG Export Plug-In . SVG Version: 6.00 Build 0)  -->
<svg version="1.1" xmlns="http://www.w3.org/2000/svg" xmlns:xlink="http://www.w3.org/1999/xlink" x="0px" y="0px"
	 viewBox="0 0 1920 1080" style="enable-background:new 0 0 1920 1080;" xml:space="preserve">
<style type="text/css">
	.st0{display:none;}
	.st1{display:inline;fill:#383535;}
	.st2{display:inline;fill:#232121;}
	.st3{display:inline;fill:#282525;}
	.st4{display:inline;fill:#3A3232;}
	.st5{fill:#282525;}
	.st6{fill:#232121;}
</style>
<g id="Layer_1" class="st0">
	<polygon class="st1" points="1099,453.7 953.9,472.1 1026.4,504.8 915.1,576.3 1068.3,784.7 1229.7,600.8 	"/>
	<polygon class="st2" points="1049.9,226.9 1033.6,314.8 1372.8,298.4 	"/>
	<polygon class="st3" points="1203.2,868.5 1438.1,760.2 1229.7,600.8 1068.3,784.7 	"/>
	<polygon class="st3" points="1427.9,536.1 1372.8,298.4 1229.7,600.8 	"/>
	<polygon class="st3" points="594.3,960.4 659.7,1015.6 786.4,1038 690.3,989 651.5,987 	"/>
	<polygon class="st3" points="627,888.9 690.3,942 678.1,899.1 786.4,888.9 755.7,860.3 874.2,860.3 851.7,835.8 1049.9,784.7 
		569.8,784.7 	"/>
	<polygon class="st3" points="710.8,521.1 390,760.2 430.9,745.9 	"/>
	<polygon class="st3" points="800.7,521.1 710.8,521.1 430.9,745.9 504.4,760.2 	"/>
	<polygon class="st2" points="800.7,521.1 569.8,784.7 915.1,576.3 	"/>
	<polygon class="st1" points="742.4,314.8 874.2,226.9 1049.9,226.9 1033.6,314.8 874.2,388.7 729.2,376.1 	"/>
	<polygon class="st3" points="800.7,204.4 729.2,51.2 874.2,226.9 835.6,252.7 	"/>
	<path class="st4" d="M1168.4,32.8c0,0,133.8-5.1,204.3,265.6l-322.8-71.5L1168.4,32.8z"/>
</g>
<g id="Layer_2">
	<polygon class="st5" points="1371.4,298.4 1228.4,600.8 1097.6,453.7 	"/>
	<polygon class="st5" points="1017.9,181.9 872.9,226.9 1048.6,226.9 1079.2,181.9 	"/>
	<path class="st5" d="M1167.1,32.8l-118.5,194.1l322.8,71.5c0,0,38.8-61.3-55.2-210.4C1316.2,87.9,1228.4,30.7,1167.1,32.8z"/>
	<polygon class="st5" points="1436.8,760.1 1426.6,536.1 1477.6,480.2 	"/>
	<polygon class="st6" points="785,1038 689,989 817.7,964.5 793.2,939.9 895.3,919.5 872.9,897 965.8,878.6 944.4,868.4 1067,784.7 
		1201.8,868.4 	"/>
	<polygon class="st5" points="799.3,521.1 503,760.1 568.4,784.7 	"/>
	<polygon class="st5" points="872.9,388.6 856.5,480.2 1097.6,453.7 1032.2,314.7 	"/>
	<polygon class="st6" points="651.2,431.2 668.5,463.9 727.8,376 741.1,314.7 	"/>
</g>
<g id="Layer_3" class="st0">
	<polygon class="st4" points="1479,480.3 1427.9,536.1 1372.8,298.4 1377.9,252.7 	"/>
	<polygon class="st3" points="569.8,784.7 1068.3,784.7 915.1,576.3 	"/>
	<polygon class="st3" points="1033.6,314.8 1099,453.7 1372.8,298.4 	"/>
	<polygon class="st4" points="1438.1,760.2 1427.9,536.1 1229.7,600.8 	"/>
	<polygon class="st1" points="390,760.2 430.9,745.9 504.4,760.2 569.8,784.7 627,888.9 690.3,942 569.8,874.6 569.8,890.9 
		506.5,868.5 540.2,919.5 473.8,863.3 	"/>
	<polygon class="st3" points="729.2,376.1 874.2,388.7 857.9,480.3 800.7,521.1 710.8,521.1 669.9,463.9 	"/>
	<polygon class="st3" points="652.5,431.2 669.9,463.9 685.1,541.8 669.9,553.9 	"/>
	<polygon class="st4" points="729.2,51.2 874.2,226.9 1019.3,182 	"/>
</g>
</svg>
